<?xml version="1.0" encoding="utf-8"?>
<!-- Generator: Adobe Illustrator 16.0.0, SVG Export Plug-In . SVG Version: 6.00 Build 0)  -->
<!DOCTYPE svg PUBLIC "-//W3C//DTD SVG 1.1//EN" "http://www.w3.org/Graphics/SVG/1.1/DTD/svg11.dtd">
<svg version="1.1" id="Calque_1" xmlns="http://www.w3.org/2000/svg" xmlns:xlink="http://www.w3.org/1999/xlink" x="0px" y="0px"
	 width="250px" height="250px" viewBox="0 0 250 250" enable-background="new 0 0 250 250" xml:space="preserve">
<path d="M208.044,48.049H41.639c-9.773,0-17.742,7.966-17.742,17.745v118.299c0,9.748,7.937,17.745,17.742,17.745h166.405
	c9.748,0,17.75-7.939,17.75-17.745V65.793C225.794,56.046,217.854,48.049,208.044,48.049 M205.592,59.877l-80.374,80.379
	L44.144,59.877H205.592z M35.725,181.641V68.188l56.967,56.482L35.725,181.641z M44.089,190.005l57.006-57.007l19.974,19.804
	c2.314,2.29,6.042,2.285,8.351-0.016l19.474-19.479l56.697,56.697H44.089z M213.961,181.641l-56.697-56.697l56.697-56.703V181.641z"
	/>
</svg>
