<?xml version="1.0" encoding="utf-8"?>
<!-- Generator: Adobe Illustrator 16.0.0, SVG Export Plug-In . SVG Version: 6.00 Build 0)  -->
<!DOCTYPE svg PUBLIC "-//W3C//DTD SVG 1.1//EN" "http://www.w3.org/Graphics/SVG/1.1/DTD/svg11.dtd">
<svg version="1.1" id="Calque_1" xmlns="http://www.w3.org/2000/svg" xmlns:xlink="http://www.w3.org/1999/xlink" x="0px" y="0px"
	 width="174.93px" height="226.479px" viewBox="0 0 174.93 226.479" enable-background="new 0 0 174.93 226.479"
	 xml:space="preserve">
<path d="M132.326,13.802H44.648c-11.852,0-21.502,9.645-21.502,21.496v156.573c0,11.849,9.65,21.502,21.502,21.502h87.678
	c11.854,0,21.502-9.653,21.502-21.502V35.298C153.828,23.447,144.181,13.802,132.326,13.802 M44.648,25.49h87.678
	c5.408,0,9.811,4.403,9.811,9.808v116.279H34.84V35.298C34.84,29.894,39.244,25.49,44.648,25.49 M132.326,201.676H44.648
	c-5.405,0-9.808-4.403-9.808-9.805v-28.604h107.296v28.604C142.137,197.272,137.734,201.676,132.326,201.676 M88.487,167.233
	c-8.4,0-15.242,6.832-15.242,15.241c0,8.403,6.841,15.242,15.242,15.242c8.403,0,15.242-6.839,15.242-15.242
	C103.729,174.065,96.891,167.233,88.487,167.233 M88.487,186.025c-1.956,0-3.545-1.594-3.545-3.551c0-1.95,1.589-3.551,3.545-3.551
	s3.545,1.601,3.545,3.551C92.032,184.432,90.443,186.025,88.487,186.025"/>
</svg>
